<mxfile host="app.diagrams.net" modified="2023-08-07T03:25:53.124Z" agent="Mozilla/5.0 (Macintosh; Intel Mac OS X 10_15_7) AppleWebKit/537.36 (KHTML, like Gecko) Chrome/115.0.0.0 Safari/537.36" etag="jTF3Jl0Ijyx1WRyu0mkM" version="21.6.6" type="github">
  <diagram name="第 1 页" id="XypDvt0y7FM2inI-ccsS">
    <mxGraphModel dx="1319" dy="968" grid="1" gridSize="10" guides="1" tooltips="1" connect="1" arrows="1" fold="1" page="1" pageScale="1" pageWidth="827" pageHeight="1169" math="0" shadow="0">
      <root>
        <mxCell id="0" />
        <mxCell id="1" parent="0" />
        <mxCell id="x85ksWlpWsOPw-1cYPl7-9" style="edgeStyle=orthogonalEdgeStyle;rounded=0;orthogonalLoop=1;jettySize=auto;html=1;" edge="1" parent="1" source="x85ksWlpWsOPw-1cYPl7-1" target="x85ksWlpWsOPw-1cYPl7-8">
          <mxGeometry relative="1" as="geometry" />
        </mxCell>
        <mxCell id="x85ksWlpWsOPw-1cYPl7-10" value="匹配对应的玩法" style="edgeLabel;html=1;align=center;verticalAlign=middle;resizable=0;points=[];" vertex="1" connectable="0" parent="x85ksWlpWsOPw-1cYPl7-9">
          <mxGeometry x="0.0182" y="1" relative="1" as="geometry">
            <mxPoint as="offset" />
          </mxGeometry>
        </mxCell>
        <mxCell id="x85ksWlpWsOPw-1cYPl7-1" value="规则引擎" style="rounded=0;whiteSpace=wrap;html=1;" vertex="1" parent="1">
          <mxGeometry x="270" y="370" width="120" height="60" as="geometry" />
        </mxCell>
        <mxCell id="x85ksWlpWsOPw-1cYPl7-5" style="edgeStyle=orthogonalEdgeStyle;rounded=0;orthogonalLoop=1;jettySize=auto;html=1;" edge="1" parent="1" source="x85ksWlpWsOPw-1cYPl7-2" target="x85ksWlpWsOPw-1cYPl7-1">
          <mxGeometry relative="1" as="geometry" />
        </mxCell>
        <mxCell id="x85ksWlpWsOPw-1cYPl7-6" value="消费小游戏消息" style="edgeLabel;html=1;align=center;verticalAlign=middle;resizable=0;points=[];" vertex="1" connectable="0" parent="x85ksWlpWsOPw-1cYPl7-5">
          <mxGeometry x="0.06" y="3" relative="1" as="geometry">
            <mxPoint as="offset" />
          </mxGeometry>
        </mxCell>
        <mxCell id="x85ksWlpWsOPw-1cYPl7-2" value="小游戏消息抽象模块" style="rounded=0;whiteSpace=wrap;html=1;" vertex="1" parent="1">
          <mxGeometry x="30" y="370" width="120" height="60" as="geometry" />
        </mxCell>
        <mxCell id="x85ksWlpWsOPw-1cYPl7-13" style="edgeStyle=orthogonalEdgeStyle;rounded=0;orthogonalLoop=1;jettySize=auto;html=1;entryX=0.5;entryY=0;entryDx=0;entryDy=0;" edge="1" parent="1" source="x85ksWlpWsOPw-1cYPl7-8" target="x85ksWlpWsOPw-1cYPl7-12">
          <mxGeometry relative="1" as="geometry" />
        </mxCell>
        <mxCell id="x85ksWlpWsOPw-1cYPl7-18" value="业务依赖" style="edgeLabel;html=1;align=center;verticalAlign=middle;resizable=0;points=[];" vertex="1" connectable="0" parent="x85ksWlpWsOPw-1cYPl7-13">
          <mxGeometry x="-0.15" y="3" relative="1" as="geometry">
            <mxPoint as="offset" />
          </mxGeometry>
        </mxCell>
        <mxCell id="x85ksWlpWsOPw-1cYPl7-16" style="edgeStyle=orthogonalEdgeStyle;rounded=0;orthogonalLoop=1;jettySize=auto;html=1;" edge="1" parent="1" source="x85ksWlpWsOPw-1cYPl7-8" target="x85ksWlpWsOPw-1cYPl7-15">
          <mxGeometry relative="1" as="geometry" />
        </mxCell>
        <mxCell id="x85ksWlpWsOPw-1cYPl7-17" value="生成/依赖" style="edgeLabel;html=1;align=center;verticalAlign=middle;resizable=0;points=[];" vertex="1" connectable="0" parent="x85ksWlpWsOPw-1cYPl7-16">
          <mxGeometry x="-0.175" y="3" relative="1" as="geometry">
            <mxPoint as="offset" />
          </mxGeometry>
        </mxCell>
        <mxCell id="x85ksWlpWsOPw-1cYPl7-8" value="小游戏玩法库" style="rounded=0;whiteSpace=wrap;html=1;" vertex="1" parent="1">
          <mxGeometry x="510" y="370" width="120" height="60" as="geometry" />
        </mxCell>
        <mxCell id="x85ksWlpWsOPw-1cYPl7-12" value="小游戏营销工具" style="rounded=0;whiteSpace=wrap;html=1;" vertex="1" parent="1">
          <mxGeometry x="510" y="500" width="120" height="60" as="geometry" />
        </mxCell>
        <mxCell id="x85ksWlpWsOPw-1cYPl7-15" value="公共数据模块" style="rounded=0;whiteSpace=wrap;html=1;" vertex="1" parent="1">
          <mxGeometry x="700" y="370" width="120" height="60" as="geometry" />
        </mxCell>
      </root>
    </mxGraphModel>
  </diagram>
</mxfile>
